<svg width="18" height="21" viewBox="0 0 18 21" fill="none" xmlns="http://www.w3.org/2000/svg">
<path d="M11.9232 12.8502C11.7927 12.8078 10.9682 12.4381 11.4834 10.8799H11.476C12.8191 9.50383 13.8454 7.28948 13.8454 5.10941C13.8454 1.75728 11.6048 0 9.00082 0C6.39517 0 4.16691 1.75646 4.16691 5.10941C4.16691 7.29846 5.18751 9.52178 6.53874 10.8946C7.06545 12.2691 6.12361 12.7792 5.92671 12.8511C3.19964 13.8321 0 15.6204 0 17.3859V18.0478C0 20.4531 4.68788 21 9.02625 21C13.3712 21 18 20.4531 18 18.0478V17.3859C18 15.5674 14.7848 13.793 11.9232 12.8502Z" fill="#717F3A"/>
</svg>
